# xmcd CD database file
#
# Track frame offsets:
#	150
#	22240
#	36960
#	54605
#	68262
#	82642
#	136532
#	157827
#	172400
#	190341
#	211966
#	226150
#	240656
#	252832
#	270272
#	286680
#	310743
#	332748
#
# Disc length: 4587 seconds
#
# Revision: 1
# Processed by: cddbd v1.4PL0 Copyright (c) Steve Scherf et al.
# Submitted via: Feurio! 1.63 - http://www.feurio.com
#
DISCID=e611e912
DTITLE=La Tropa Vallenata - Grandes Exitos
DYEAR=1900
DGENRE=
TTITLE0=Los Caminos De La Vida
TTITLE1=Mi Razon De Ser
TTITLE2=Borracho
TTITLE3=Sonrieme
TTITLE4=A Ritmo De Tambo
TTITLE5=Popurri
TTITLE6=Hoja En Blanco
TTITLE7=Mi Razon De Ser
TTITLE8=Mi Cafetal
TTITLE9=Quiero Saber De Ti
TTITLE10=Al Ritmo
TTITLE11=Ave Pa Ve
TTITLE12=La Tarara
TTITLE13=Busca Un Confidente
TTITLE14=Cumbia De Los Pobres
TTITLE15=Celos
TTITLE16=Cumbia Sampuesana
TTITLE17=La Burra Tuerta
EXTD=
EXTT0=
EXTT1=
EXTT2=
EXTT3=
EXTT4=
EXTT5=
EXTT6=
EXTT7=
EXTT8=
EXTT9=
EXTT10=
EXTT11=
EXTT12=
EXTT13=
EXTT14=
EXTT15=
EXTT16=
EXTT17=
PLAYORDER=
